<?xml version="1.0" encoding="UTF-8"?>
<svg id="Layer_2" xmlns="http://www.w3.org/2000/svg" version="1.1" viewBox="0 0 16 16">
  <!-- Generator: Adobe Illustrator 29.2.1, SVG Export Plug-In . SVG Version: 2.1.0 Build 116)  -->
  <defs>
    <style>
      .st0 {
        fill: #cc91c0;
      }

      .st1 {
        fill: #f1ed76;
      }

      .st2 {
        fill: #8cb63f;
      }
    </style>
  </defs>
  <polygon class="st2" points="2 4.84 2.13 5.28 2.47 5.44 3.76 5.67 6.9 5.79 9.26 5.79 11.47 5.73 12.79 5.6 13.41 5.47 13.8 5.15 13.91 4.93 14.59 6.05 14.93 8.14 15.03 10.38 14.86 11.12 13.78 11.92 12.61 12.65 12.11 13.33 11.43 14.64 11.03 15.2 9.96 15.53 8.51 15.73 6.63 15.64 5.25 15.4 4.48 14.77 4.06 13.6 2.98 12.47 1.9 11.7 1.11 11.06 .88 10.28 .93 8.88 1.18 6.67 1.47 5.68 2 4.84"/>
  <path class="st1" d="M2.31,8.1c.4-.26.78-.29,1.01-.31.21-.01.67-.04,1.18.21.15.08.64.33.9.9.06.14.17.38.16.71-.03.56-.4.93-.51,1.03-.34.33-.73.42-.98.49-.21.05-.53.13-.95.05-.15-.03-.74-.16-1.18-.7-.12-.15-.39-.48-.41-.97-.02-.45.18-.77.26-.89.04-.06.2-.31.52-.52Z"/>
  <path class="st1" d="M11.32,8.04c.54-.31,1.06-.29,1.23-.27.49.05.82.25.97.35.25.16.66.42.83.94.04.12.17.57-.05,1.04-.15.33-.39.5-.62.67-.4.28-.77.37-.88.4-.58.12-1.04-.02-1.13-.05-.17-.05-.52-.17-.84-.51-.12-.13-.38-.42-.44-.87-.06-.43.09-.75.16-.89.23-.48.61-.71.77-.8Z"/>
  <path d="M2.33,9.28c.16-.3.51-.34.53-.34.38-.04.62.27.64.29.03.04.21.28.14.58-.08.34-.41.46-.45.47-.04.01-.32.11-.58-.05-.31-.18-.46-.63-.28-.96Z"/>
  <path d="M12.58,9.04s.34-.19.68-.03c.05.02.3.15.37.44.09.37-.19.65-.21.67-.05.04-.21.19-.46.19-.04,0-.28,0-.49-.18-.17-.15-.28-.41-.21-.67.06-.26.27-.39.33-.42Z"/>
  <path d="M7.27,10.03s.26,1.38.26,1.38l-1.3.41,1.04-1.79Z"/>
  <path d="M8.6,9.92c.06.01,1.02,1.89,1.02,1.89,0,0-.56-.17-.58-.19s-.58-.33-.58-.33l.15-1.37Z"/>
  <polygon class="st0" points="2.09 5.15 2.13 5.28 2.47 5.44 4.02 5.73 6.02 5.8 8.27 5.8 10.59 5.75 12.32 5.64 13.41 5.47 13.8 5.15 13.74 4.79 13.63 4.06 13.01 2.81 12.23 1.55 11.13 .66 9.96 .18 9.01 .17 8 .38 6.79 .12 5.46 .3 4.6 .79 3.65 1.66 3.04 2.54 2.44 3.74 2.22 4.47 2.09 5.15"/>
  <g>
    <path d="M12.42,1.67c.25.29.42.65.6.98.26.48.54.97.7,1.5.05.18.08.38.13.55.04.12.26.34.35.47.77,1.09.66,2,.82,3.26.04.31.1.65.11.98.02.54.03,1.13-.21,1.62s-1.23.97-1.69,1.28c-.58.4-1.05.98-1.37,1.6-.25.48-.37.98-.85,1.31-.21.14-.65.33-.9.37-1.41.26-2.87.26-4.28,0-.53-.1-1.17-.45-1.42-.94-.06-.12-.09-.26-.14-.37-.31-.67-.78-1.36-1.38-1.82-.52-.4-1.56-.86-1.88-1.41-.38-.64-.12-2.44-.04-3.2.04-.37.05-.67.11-1.02.16-.82.36-1.34.91-1.97.01-.02.05-.02.06-.03.03-.05.12-.55.15-.67.2-.64.58-1.24.9-1.82.3-.55.59-.88,1.07-1.29C5.23.14,6.23-.12,7.6.2c.09.02.29.11.36.11.09,0,.42-.13.55-.15,1.37-.29,2.37.1,3.38.99.16.14.4.36.54.52ZM7.89.43c-.17-.04-.33-.1-.5-.14-1.52-.32-2.57.25-3.6,1.3-.35.36-.5.67-.73,1.09-.27.48-.54.96-.7,1.49-.05.16-.17.54-.18.68,0,.07.03.39.02.41,0,0-.05.02-.07.02-.07-.01-.08-.21-.08-.27-.18.14-.28.35-.39.54-.52.88-.46,1.59-.57,2.57-.09.72-.17,1.46-.13,2.22.07,1.06,1.14,1.38,1.9,1.93.41.29.83.76,1.11,1.18.03.04.1.21.12.23.13.08.96-.13,1.15-.14-.05-.15-.07-.32-.11-.46,0-.02-.03-.02-.04-.03-.02-.05-.05-.19-.02-.23.06-.08.12,0,.14.07.04.09.13.61.16.61l2.39-.13v-.62c0-.05.09-.09.13-.04v.6c.01.09.24.05.32.05.51.03,1.02.03,1.53.06.11,0,.74.09.78.06.06-.14.06-.32.11-.46,0-.02.03-.02.04-.03.03-.08.05-.31.17-.16l-.16.7c.25.03.5.09.75.12.1.01.32.05.4,0,.02-.01.23-.39.28-.45.63-.84,1.3-1.1,2.11-1.68.47-.33.7-.59.73-1.19.06-.89-.06-1.78-.15-2.66-.04-.41-.06-.72-.15-1.12s-.17-.65-.37-.99c-.05-.09-.28-.44-.34-.5-.02-.02-.03-.04-.06-.03.03.08-.03.1-.04.12-.01.03.01.08-.03.11-.02.02-.08,0-.09,0-.01-.02.02-.38.02-.47-.08-.78-.7-1.79-1.07-2.47-.49-.89-1.56-1.8-2.56-2.04-.7-.17-1.42-.09-2.1.16v2.67s-.13.04-.13,0V.43ZM7.78,13.48l-2.31.13-.03.05c.02.15.14.45.12.59s-.12.03-.17-.03l-.11-.57-1.11.15c0,.09.07.13.1.19.23.48.25.82.75,1.14.62.4,1.54.45,2.26.5.95.06,1.81.01,2.76-.15.3-.05.75-.25.99-.44.27-.22.41-.52.54-.82.06-.13.11-.27.16-.4l-1.11-.16-.11.57-.07.1c-.05-.02-.1-.03-.09-.09,0-.04.04-.03.04-.05.04-.15.04-.35.1-.5,0-.03,0-.05-.03-.06-.85-.05-1.69-.13-2.54-.12-.05.04,0,.5-.02.6-.01.05-.13.02-.13-.02v-.6Z"/>
    <path d="M5.4,8.77c.78,1.36-.57,2.6-1.94,2.52s-2.54-1.39-1.72-2.66,2.92-1.15,3.66.15ZM5.41,9.12c-.5-1.44-2.6-1.7-3.5-.52-.19.25-.18.45-.25.72,0,.02-.04.01-.04.03-.02.1.02.27.05.37.26,1.17,1.56,1.68,2.65,1.32.81-.27,1.39-1.08,1.1-1.92Z"/>
    <path d="M14.15,8.58c.97,1.4-.53,2.8-1.99,2.71-1.22-.08-2.26-1.18-1.71-2.39.63-1.4,2.82-1.59,3.7-.32ZM14.15,8.85c-.85-1.7-3.85-1.07-3.69.85.08,1.02,1.24,1.55,2.16,1.43,1.08-.14,2.08-1.18,1.53-2.29Z"/>
    <path d="M13.45,5.44s-.25.1-.31.12c-.88.25-1.75.21-2.65.24-1.72.06-3.32.06-5.04,0-.9-.03-1.81.01-2.68-.24-.04-.01-.29-.11-.3-.12-.05-.18.2-.04.26-.02.51.15,1.27.25,1.8.27,1.08.04,2.16.06,3.24.06,1.2,0,2.42-.01,3.62-.06.51-.02,1.22-.11,1.71-.24.07-.02.31-.13.34-.08.01.02.02.06,0,.08Z"/>
    <path d="M7.36,9.95s.07.38.09.45c.02.08.04.12.04.15.05.22.02.51.08.73,0,.1-.19.2-.28.24-.23.11-.49.19-.73.28-.11.04-.46.28-.3-.07.19-.43.42-.85.64-1.26.06-.11.27-.7.45-.51ZM6.44,11.7c.08-.03.17-.04.25-.07.15-.06.38-.15.52-.21.11-.05.2-.1.19-.22,0-.21-.05-.53-.09-.75,0-.05-.05-.29-.07-.31-.03.09-.1.15-.15.23-.18.31-.39.71-.54,1.03-.05.1-.08.21-.12.31Z"/>
    <path d="M8.9,10.23c.11.19.23.41.33.6s.42.78.45.97c.03.24-.24.03-.33,0-.14-.06-.26-.1-.4-.16-.2-.09-.44-.13-.57-.31l.18-1.37c.2-.14.27.14.34.27ZM8.9,10.52c-.07-.12-.14-.24-.19-.37-.02-.03-.04-.01-.05.01-.02.06-.01.15-.03.22,0,.02-.04,0-.04.05-.03.23-.08.54-.08.76,0,.19.33.26.48.32.05.02.09.06.13.08.11.05.24.07.36.12-.07-.2-.15-.39-.25-.58s-.23-.41-.33-.6Z"/>
    <path d="M3.65,9.29c.43.71-.5,1.46-1.17.91-.18-.15-.19-.31-.24-.51,0-.02-.04-.01-.04-.03-.03-.09.04-.09.04-.1.05-.19.04-.35.21-.5.39-.33.95-.19,1.2.23ZM2.52,10.02c.49.53,1.25.09,1.04-.57s-1.29-.54-1.2.26c.02.15.07.21.16.31Z"/>
    <path d="M13.59,9.18c.12.15.15.43.11.61-.2.87-1.61.79-1.5-.25.07-.66.99-.89,1.39-.36ZM12.42,9.95c.48.74,1.47-.01,1.05-.68-.19-.31-.68-.35-.94-.09-.22.22-.29.5-.11.77Z"/>
  </g>
</svg>